<?xml version="1.0" encoding="UTF-8"?>
<svg id="Capa_1" data-name="Capa 1" xmlns="http://www.w3.org/2000/svg" viewBox="0 0 100 100">
  <defs>
    <style>
      .cls-1 {
        fill: #fff;
      }

      .cls-2 {
        fill: #8cc53f;
      }
    </style>
  </defs>
  <rect class="cls-2" y="0" width="100" height="100"/>
  <g>
    <path class="cls-1" d="M72.9,44.7c-.05-.11-4.66-11.67-15.58-25.96-.06-.07-.14-.12-.23-.13-.09-.01-.19.02-.26.08-.2.17-20.61,17.28-31.17,48.47-.06.17.03.36.2.42.04.02.09.02.13.02.13,0,.25-.07.31-.19.1-.22,10.04-21.57,32.44-41.07,1.14,1.37,6.57,8.03,13.56,18.68.1.14.29.19.44.11.16-.08.22-.26.16-.43Z"/>
    <path class="cls-1" d="M74.32,58.5c-.05-.12-4.66-11.68-15.58-25.97-.06-.07-.14-.12-.23-.13-.09,0-.19.02-.26.08-.2.17-20.61,17.28-31.17,48.47-.06.18.03.36.2.43.04.02.08.02.12.02.13,0,.26-.07.31-.2.1-.21,10.04-21.56,32.44-41.08,1.14,1.37,6.57,8.03,13.56,18.69.09.15.28.2.44.11.15-.08.22-.26.16-.42Z"/>
  </g>
</svg>